<?xml version="1.0" encoding="UTF-8"?>
<!DOCTYPE svg PUBLIC "-//W3C//DTD SVG 1.1//EN" "http://www.w3.org/Graphics/SVG/1.1/DTD/svg11.dtd">
<!-- Creator: CorelDRAW -->
<svg xmlns="http://www.w3.org/2000/svg" xml:space="preserve" width="297mm" height="210mm" version="1.1" style="shape-rendering:geometricPrecision; text-rendering:geometricPrecision; image-rendering:optimizeQuality; fill-rule:evenodd; clip-rule:evenodd"
viewBox="0 0 29700 21000"
 xmlns:xlink="http://www.w3.org/1999/xlink"
 xmlns:xodm="http://www.corel.com/coreldraw/odm/2003">
 <defs>
  <style type="text/css">
   <![CDATA[
    .fil0 {fill:#FFCC29;fill-rule:nonzero}
   ]]>
  </style>
 </defs>
 <g id="Camada_x0020_1">
  <metadata id="CorelCorpID_0Corel-Layer"/>
  <path class="fil0" d="M10194.1 2161.38l9310.73 0c1015.21,0 1937.92,415.08 2606.63,1083.79 668.71,668.68 1083.75,1591.38 1083.75,2606.6l0 9310.72c0,1015.22 -415.04,1937.92 -1083.75,2606.6 -668.71,668.71 -1591.42,1083.79 -2606.63,1083.79l-9310.73 0c-1015.22,0 -1937.89,-415.05 -2606.6,-1083.76 -668.71,-668.71 -1083.79,-1591.41 -1083.79,-2606.63l0 -9310.72c0,-1015.22 415.05,-1937.89 1083.79,-2606.6 668.71,-668.71 1591.38,-1083.79 2606.6,-1083.79zm3814.59 13461.11l1681.58 0c223.88,0 407.04,183.16 407.04,407.07 0,223.86 -183.16,407.05 -407.04,407.05l-157.31 0 0 159.33c0,0.63 -9.79,153.15 -160.34,230.04l-387.83 228 0 -439.03c53.81,-40.9 88.56,-105.55 88.56,-178.34 0,-123.63 -100.25,-223.89 -223.89,-223.89 -123.63,0 -223.85,100.26 -223.85,223.89 0,72.79 34.74,137.44 88.53,178.34l0 439.03 -387.83 -228c-150.56,-76.89 -160.34,-229.41 -160.34,-230.04l0 -159.33 -157.28 0c-223.89,0 -407.08,-183.19 -407.08,-407.05 0,-223.91 183.19,-407.07 407.08,-407.07zm-926.75 -1196.09l3535.04 0c223.89,0 407.08,183.16 407.08,407.05 0,223.88 -183.19,407.07 -407.08,407.07l-3535.04 0c-223.85,0 -407.04,-183.19 -407.04,-407.07 0,-223.89 183.19,-407.05 407.04,-407.05zm0 -1221.13l3535.04 0c223.89,0 407.08,183.16 407.08,407.04 0,223.89 -183.19,407.05 -407.08,407.05l-3535.04 0c-223.85,0 -407.04,-183.16 -407.04,-407.05 0,-223.88 183.19,-407.04 407.04,-407.04zm-904.14 -7930.92c91.95,-754.86 753.47,-1314.07 1516.84,-1314.07 443.19,0 863.89,187.95 1154.85,516.82 291,-328.84 711.61,-516.82 1154.8,-516.82 763.4,0 1424.91,559.21 1516.86,1314.07 665.05,163.26 1156.29,751.59 1156.29,1447.88 0,155.14 -25.08,309.29 -73.42,456.31 548.94,231.98 918.48,763.67 918.45,1369.73 -0.03,571.55 -332.86,1081.97 -837.57,1331.71 56.88,158.32 86.42,325.65 86.42,494.35 0,406.36 -169.5,782.17 -463.47,1061.66 -219.34,208.53 -491.77,348.32 -787.77,404.63 -90.43,250.69 -246.28,473.21 -449.91,646.26 -286.51,243.51 -652.11,375.51 -1028.04,375.51 -458.93,0 -894.08,-196.52 -1192.7,-539.43 -298.55,342.91 -733.74,539.43 -1192.66,539.43 -375.93,0 -741.51,-132 -1028.04,-375.51 -203.66,-173.08 -359.48,-395.57 -449.98,-646.26 -295.99,-56.31 -568.39,-196.13 -787.73,-404.63 -293.94,-279.49 -463.39,-655.3 -463.39,-1061.66 0,-168.7 29.51,-336.03 86.33,-494.35 -504.65,-249.77 -837.5,-760.16 -837.5,-1331.74 0,-606.03 369.53,-1137.72 918.48,-1369.7 -48.37,-147.02 -73.42,-301.17 -73.42,-456.31 0,-696.26 491.26,-1284.59 1156.28,-1447.88zm668.71 6171.9c59.2,394.14 416.75,674.66 810.32,674.66 1.48,0 2.94,0.03 4.4,0.09 435.42,-2.32 811.32,-341.39 814.12,-783.66 -0.03,-1.45 -0.09,-3.51 -0.09,-5.59 0,-2.85 0.12,-5.71 0.27,-8.57l0 -5844.01c0,-0.8 0.03,-1.49 0.03,-2.29 9.34,-434 -351.95,-775.39 -780.83,-775.12 -418.03,0.27 -779.71,325.89 -779.71,751.02 0,32.82 2.18,65.69 6.58,98.17 0.06,0.54 0.15,1.1 0.21,1.64 49.26,358.88 371.14,613.56 728.56,613.56 205.23,0 374.06,164.74 374.06,370.72 0,205.98 -168.83,370.78 -374.06,370.78 -591.63,0 -1136.89,-349.54 -1368.39,-890.63 -297.6,105.31 -512.44,380.69 -512.44,705.21 0,174.18 59.91,335.71 171.35,469.46 90.28,108.37 111.11,258.87 53.04,387.47 -58.13,128.69 -184.35,212.94 -325.27,218.98 -406.06,17.4 -744.12,336.36 -744.12,750.1 0,387.97 303.46,700.48 683.88,745.16 135.62,15.95 252.5,104.12 303.49,230.94 50.87,126.46 27.07,271.63 -61.01,375.6 -114.06,134.64 -175.25,297.9 -175.25,474.39 0,291.66 187.21,544.96 442.15,669.52 140.53,-722.88 794.04,-1242.76 1539.03,-1242.76 205.2,0 373.96,164.8 373.96,370.75 0,206 -168.76,370.72 -373.96,370.72 -439.21,0 -818.82,342.76 -818.82,789.19 0,37.6 2.76,75.29 8.21,112.48 0.12,0.68 0.2,1.34 0.29,2.02zm-361.26 -4285.26c691.38,0 1274.21,548.05 1274.21,1246.09 0,698.02 -582.83,1246.07 -1274.21,1246.07 -205.2,0 -374.02,-164.75 -374.02,-370.73 0,-205.97 168.85,-370.66 374.02,-370.66 281.12,0 526.16,-218.29 526.16,-504.68 0,-286.44 -245.01,-504.68 -526.16,-504.68 -205.2,0 -374.02,-164.71 -374.02,-370.69 0,-205.98 168.82,-370.72 374.02,-370.72zm4931.72 -1144.03c-231.53,541.12 -776.75,890.69 -1368.44,890.69 -205.21,0 -373.97,-164.83 -373.97,-370.78 0,-205.98 168.73,-370.75 373.97,-370.75 357.9,0 680.28,-255.48 728.74,-615.2 4.37,-32.48 6.63,-65.35 6.63,-98.17 0,-425.1 -361.68,-750.9 -779.67,-751.08 -425.85,-0.18 -787.88,337.11 -780.59,769.62 0,0.62 0,1.16 0,1.78l0 5858.68c0,2.47 -0.09,4.91 -0.15,6.16 2.91,443.16 381.37,783 818.64,783 394.16,0 752.27,-281.45 810.52,-676.59 0.18,-1.16 0.36,-2.32 0.57,-3.45 5.14,-36.09 7.7,-72.65 7.7,-109.12 0,-446.4 -379.59,-789.19 -818.79,-789.19 -205.17,0 -374.05,-164.72 -374.05,-370.72 0,-205.95 168.88,-370.75 374.05,-370.75 744.99,0 1398.49,519.91 1539.03,1242.79 254.94,-124.56 442.05,-377.92 442.05,-669.55 0,-176.49 -61.07,-339.75 -175.15,-474.39 -88.09,-103.94 -111.86,-249.14 -61.02,-375.6 50.96,-126.85 167.81,-214.96 303.44,-230.94 380.36,-44.68 683.94,-357.22 683.94,-745.16 0,-413.71 -338.09,-732.73 -744.13,-750.16 -140.88,-6.04 -267.13,-90.29 -325.23,-218.92 -58.13,-128.63 -37.28,-279.1 52.98,-387.5 111.44,-133.78 171.32,-295.34 171.32,-469.52 0,-324.49 -214.81,-599.84 -512.39,-705.18zm-203.26 1885.44c-281.13,0 -526.22,218.24 -526.22,504.68 0,286.39 245.09,504.68 526.22,504.68 205.17,0 374.02,164.69 374.02,370.66 0,205.98 -168.82,370.73 -374.02,370.73 -691.38,0 -1274.24,-548.05 -1274.24,-1246.07 0,-698.04 582.89,-1246.09 1274.24,-1246.09 205.17,0 374.02,164.74 374.02,370.72 0,205.98 -168.85,370.69 -374.02,370.69zm2291.12 -5040.51l-9310.73 0c-821.85,0 -1569.25,336.48 -2111.32,878.56 -542.07,542.07 -878.56,1289.46 -878.56,2111.32l0 9310.72c0,821.86 336.49,1569.25 878.56,2111.32 542.07,542.08 1289.47,878.56 2111.32,878.56l9310.73 0c821.85,0 1569.25,-336.48 2111.32,-878.56 542.1,-542.07 878.55,-1289.46 878.55,-2111.32l0 -9310.72c0,-821.86 -336.45,-1569.25 -878.55,-2111.32 -542.07,-542.08 -1289.47,-878.56 -2111.32,-878.56z"/>
 </g>
</svg>
