<?xml version="1.0" encoding="UTF-8"?>
<!DOCTYPE svg PUBLIC "-//W3C//DTD SVG 1.1//EN" "http://www.w3.org/Graphics/SVG/1.1/DTD/svg11.dtd">
<!-- Creator: CorelDRAW -->
<svg xmlns="http://www.w3.org/2000/svg" xml:space="preserve" width="297mm" height="210mm" version="1.1" style="shape-rendering:geometricPrecision; text-rendering:geometricPrecision; image-rendering:optimizeQuality; fill-rule:evenodd; clip-rule:evenodd"
viewBox="0 0 29700 21000"
 xmlns:xlink="http://www.w3.org/1999/xlink"
 xmlns:xodm="http://www.corel.com/coreldraw/odm/2003">
 <defs>
  <style type="text/css">
   <![CDATA[
    .fil0 {fill:#FFCC29;fill-rule:nonzero}
   ]]>
  </style>
 </defs>
 <g id="Camada_x0020_1">
  <metadata id="CorelCorpID_0Corel-Layer"/>
  <path class="fil0" d="M3746.96 6034.12l4983.95 0c543.44,0 1037.35,222.19 1395.3,580.15 357.96,357.94 580.13,851.85 580.13,1395.29l0 4983.94c0,543.44 -222.17,1037.35 -580.13,1395.29 -357.95,357.96 -851.86,580.15 -1395.3,580.15l-4983.95 0c-543.44,0 -1037.33,-222.18 -1395.29,-580.13 -357.95,-357.96 -580.14,-851.87 -580.14,-1395.31l0 -4983.94c0,-543.44 222.17,-1037.34 580.14,-1395.29 357.96,-357.96 851.85,-580.15 1395.29,-580.15zm22858.44 6706.19c-149.73,0 -288.95,-28.88 -422.94,-84.06 -131.34,-57.79 -246.93,-136.6 -341.49,-244.31 -13.13,-13.13 -18.39,-26.25 -18.39,-39.39 0,-13.14 7.88,-26.28 21.02,-42.04l170.74 -162.87c13.13,-13.14 23.64,-18.38 36.78,-18.38 15.77,0 28.9,7.87 42.04,21.01 68.3,68.29 144.48,120.84 233.8,154.98 86.69,36.79 178.62,55.18 270.56,55.18 105.08,0 189.15,-21.02 252.19,-63.06 60.41,-42.02 91.94,-102.44 91.94,-178.62 0,-49.92 -15.76,-91.94 -44.66,-126.1 -28.89,-34.14 -73.56,-63.04 -133.97,-89.32 -63.04,-26.26 -147.11,-55.16 -257.44,-86.69 -170.74,-47.28 -315.23,-115.57 -433.44,-204.89 -118.22,-89.32 -176.01,-218.03 -176.01,-386.16 0,-102.45 26.28,-197.02 81.44,-281.09 52.53,-84.06 133.97,-149.73 236.42,-199.64 105.08,-49.92 231.17,-73.55 375.65,-73.55 123.47,0 241.68,21.02 357.27,63.04 112.95,42.04 215.4,102.46 304.72,178.64 15.76,10.51 23.65,23.63 23.65,39.4 0,13.13 -5.26,26.27 -15.77,39.41l-157.61 178.63c-10.51,15.75 -23.65,23.63 -39.42,23.63 -13.12,0 -26.25,-5.25 -39.39,-15.76 -57.79,-47.28 -123.48,-84.05 -197.03,-112.95 -76.18,-26.27 -149.73,-42.04 -223.28,-42.04 -94.58,0 -170.76,18.39 -231.17,52.55 -57.79,36.77 -86.69,89.32 -86.69,154.99 0,47.28 15.76,86.69 44.65,118.2 31.53,31.53 70.94,57.81 118.22,78.81 49.9,18.39 120.84,42.04 215.4,70.92l28.9 10.51c139.23,44.67 252.19,89.32 341.51,139.24 91.94,47.28 162.87,110.33 215.4,183.88 52.54,76.18 78.81,168.12 78.81,278.46 0,123.46 -28.9,231.17 -91.94,323.11 -60.42,91.95 -147.11,162.87 -257.45,212.78 -107.69,49.91 -233.79,73.55 -373.02,73.55zm-4183.38 2.63c-189.15,0 -362.53,-47.28 -520.14,-136.6 -157.62,-91.94 -281.08,-215.4 -370.39,-373.03 -91.95,-157.62 -136.6,-330.98 -136.6,-520.13 0,-189.14 44.65,-359.89 136.6,-517.51 89.31,-154.99 212.77,-278.44 370.39,-370.39 157.61,-91.94 330.99,-136.6 520.14,-136.6 189.13,0 362.51,44.66 520.12,136.6 154.99,91.95 281.09,215.4 370.39,370.39 91.95,157.62 136.62,328.37 136.62,517.51 0,189.15 -44.67,362.51 -136.62,520.13 -89.3,157.63 -215.4,281.09 -370.39,373.03 -157.61,89.32 -330.99,136.6 -520.12,136.6zm0 -367.76c115.57,0 220.66,-28.91 317.86,-86.69 97.18,-60.42 175.99,-139.23 233.79,-239.05 57.79,-102.46 86.69,-212.8 86.69,-333.63 0,-123.47 -28.9,-233.79 -86.69,-333.62 -57.8,-102.46 -136.61,-181.26 -233.79,-239.05 -97.2,-57.79 -204.91,-86.69 -317.86,-86.69 -112.97,0 -220.68,28.9 -317.86,86.69 -97.2,57.79 -176.01,136.59 -233.8,239.05 -57.8,99.83 -86.69,210.15 -86.69,333.62 0,120.83 28.89,231.17 86.69,333.63 57.79,99.82 136.6,178.63 233.8,239.05 97.18,57.78 204.89,86.69 317.86,86.69zm1757.41 275.81c0,39.42 -18.39,57.81 -57.78,57.81l-262.7 0c-36.79,0 -55.16,-18.39 -55.16,-57.81l0 -1870.36c0,-36.78 18.37,-55.18 55.16,-55.18l288.96 0c28.9,0 49.92,10.51 65.67,34.16l916.8 1305.59 0 -1284.57c0,-36.78 18.39,-55.18 57.79,-55.18l260.07 0c39.4,0 57.79,18.4 57.79,55.18l0 1870.36c0,39.42 -18.39,57.81 -57.79,57.81l-254.81 0c-13.14,0 -26.28,-2.64 -36.77,-7.88 -10.51,-5.26 -21.02,-15.77 -31.53,-28.91l-945.7 -1344.98 0 1323.96zm-3137.43 0c0,39.42 -21.02,57.81 -57.79,57.81l-270.58 0c-36.77,0 -55.16,-18.39 -55.16,-57.81l0 -1870.36c0,-36.78 18.39,-55.18 55.16,-55.18l270.58 0c36.77,0 57.79,18.4 57.79,55.18l0 1870.36zm-1261.8 0c0,39.42 -18.39,57.81 -57.8,57.81l-267.94 0c-39.41,0 -57.79,-18.39 -57.79,-57.81l0 -1568.27 -525.39 0c-36.77,0 -55.17,-21.02 -55.17,-57.79l0 -244.3c0,-36.78 18.4,-55.18 55.17,-55.18l1434.3 0c39.41,0 57.79,18.4 57.79,55.18l0 244.3c0,36.77 -18.38,57.79 -57.79,57.79l-525.38 0 0 1568.27zm-2050.77 99.83c-173.38,0 -325.74,-36.78 -449.2,-110.33 -126.1,-70.93 -223.28,-173.37 -288.97,-299.47 -63.04,-128.71 -97.18,-273.21 -97.18,-438.69l0 -1121.7c0,-36.78 18.37,-55.18 57.78,-55.18l267.96 0c39.39,0 57.78,18.4 57.78,55.18l0 1077.03c0,107.71 18.4,199.66 52.54,281.09 34.15,81.44 86.69,141.85 154.99,186.5 68.29,44.67 149.73,65.69 244.3,65.69 94.57,0 176.01,-21.02 244.31,-65.69 68.29,-44.65 120.84,-105.06 157.61,-186.5 34.16,-81.43 52.54,-173.38 52.54,-281.09l0 -1077.03c0,-36.78 18.39,-55.18 55.17,-55.18l270.57 0c39.41,0 57.8,18.4 57.8,55.18l0 1121.7c0,165.48 -34.16,309.98 -99.83,438.69 -65.67,126.1 -162.87,228.54 -288.95,299.47 -126.11,73.55 -275.84,110.33 -449.22,110.33zm-3695.22 -7.88c-189.14,0 -362.51,-47.28 -520.12,-136.6 -157.62,-91.94 -281.09,-215.4 -370.41,-373.03 -91.95,-157.62 -136.6,-330.98 -136.6,-520.13 0,-189.14 44.65,-359.89 136.6,-517.51 89.32,-154.99 212.79,-278.44 370.41,-370.39 157.61,-91.94 330.98,-136.6 520.12,-136.6 189.15,0 362.51,44.66 520.14,136.6 154.99,91.95 281.08,215.4 370.39,370.39 91.95,157.62 136.6,328.37 136.6,517.51 0,189.15 -44.65,362.51 -136.6,520.13 -89.31,157.63 -215.4,281.09 -370.39,373.03 -157.63,89.32 -330.99,136.6 -520.14,136.6zm0 -367.76c115.59,0 220.66,-28.91 317.86,-86.69 97.2,-60.42 176.01,-139.23 233.8,-239.05 57.78,-102.46 86.69,-212.8 86.69,-333.63 0,-123.47 -28.91,-233.79 -86.69,-333.62 -57.79,-102.46 -136.6,-181.26 -233.8,-239.05 -97.2,-57.79 -204.89,-86.69 -317.86,-86.69 -112.96,0 -220.66,28.9 -317.86,86.69 -97.2,57.79 -176,136.59 -233.79,239.05 -57.79,99.83 -86.69,210.15 -86.69,333.62 0,120.83 28.9,231.17 86.69,333.63 57.79,99.82 136.59,178.63 233.79,239.05 97.2,57.78 204.9,86.69 317.86,86.69zm2682.09 275.81c0,39.42 -18.38,57.81 -55.16,57.81l-1190 0c-36.77,0 -55.16,-18.39 -55.16,-57.81l0 -1870.36c0,-36.78 18.39,-55.18 55.16,-55.18l270.58 0c36.77,0 57.79,18.4 57.79,55.18l0 1563.02 861.63 0c36.78,0 55.16,18.39 55.16,55.16l0 252.18zm-4656.66 89.32c-149.73,0 -288.97,-28.88 -422.94,-84.06 -131.34,-57.79 -246.93,-136.6 -341.51,-244.31 -13.12,-13.13 -18.37,-26.25 -18.37,-39.39 0,-13.14 7.88,-26.28 21,-42.04l170.75 -162.87c13.14,-13.14 23.65,-18.38 36.79,-18.38 15.76,0 28.88,7.87 42.02,21.01 68.3,68.29 144.48,120.84 233.8,154.98 86.69,36.79 178.63,55.18 270.58,55.18 105.06,0 189.14,-21.02 252.18,-63.06 60.42,-42.02 91.95,-102.44 91.95,-178.62 0,-49.92 -15.77,-91.94 -44.67,-126.1 -28.9,-34.14 -73.55,-63.04 -133.97,-89.32 -63.04,-26.26 -147.1,-55.16 -257.44,-86.69 -170.75,-47.28 -315.23,-115.57 -433.45,-204.89 -118.2,-89.32 -175.99,-218.03 -175.99,-386.16 0,-102.45 26.26,-197.02 81.43,-281.09 52.54,-84.06 133.97,-149.73 236.43,-199.64 105.06,-49.92 231.17,-73.55 375.64,-73.55 123.46,0 241.68,21.02 357.27,63.04 112.95,42.04 215.41,102.46 304.73,178.64 15.76,10.51 23.63,23.63 23.63,39.4 0,13.13 -5.24,26.27 -15.75,39.41l-157.62 178.63c-10.51,15.75 -23.64,23.63 -39.41,23.63 -13.14,0 -26.27,-5.25 -39.4,-15.76 -57.8,-47.28 -123.47,-84.05 -197.02,-112.95 -76.18,-26.27 -149.74,-42.04 -223.29,-42.04 -94.57,0 -170.75,18.39 -231.17,52.55 -57.8,36.77 -86.69,89.32 -86.69,154.99 0,47.28 15.77,86.69 44.65,118.2 31.53,31.53 70.93,57.81 118.22,78.81 49.91,18.39 120.83,42.04 215.41,70.92l28.9 10.51c139.22,44.67 252.17,89.32 341.49,139.24 91.94,47.28 162.87,110.33 215.42,183.88 52.53,76.18 78.81,168.12 78.81,278.46 0,123.46 -28.91,231.17 -91.95,323.11 -60.41,91.95 -147.1,162.87 -257.44,212.78 -107.7,49.91 -233.8,73.55 -373.02,73.55zm7419.77 -2557.71c0,39.4 -18.39,57.79 -57.79,57.79l-1216.27 0c-36.78,0 -57.79,-18.39 -57.79,-57.79l0 -1870.38c0,-36.77 21.01,-55.16 57.79,-55.16l394.04 0c39.41,0 57.79,18.39 57.79,55.16l0 1442.19 764.44 0c39.4,0 57.79,18.39 57.79,55.16l0 373.03zm-7577.39 0c0,39.4 -18.39,57.79 -57.78,57.79l-394.06 0c-36.77,0 -57.79,-18.39 -57.79,-57.79l0 -1870.38c0,-36.77 21.02,-55.16 57.79,-55.16l394.06 0c39.39,0 57.78,18.39 57.78,55.16l0 1870.38zm451.83 57.79c-36.77,0 -57.79,-18.39 -57.79,-57.79l0 -1870.38c0,-36.77 21.02,-55.16 57.79,-55.16l690.88 0c191.77,0 367.78,42.03 528.02,128.72 157.62,86.69 283.7,204.91 378.27,357.27 91.95,149.73 139.23,317.85 139.23,504.37 0,186.5 -47.28,354.63 -139.23,504.36 -91.94,152.36 -218.03,270.58 -378.27,357.27 -157.61,86.69 -333.62,131.34 -525.39,131.34l-693.51 0zm711.9 -488.61c97.2,0 183.89,-21.02 260.07,-63.04 78.81,-42.04 139.22,-102.46 181.26,-178.64 44.65,-76.18 65.67,-162.87 65.67,-262.68 0,-97.2 -21.02,-183.89 -65.67,-260.07 -42.04,-76.18 -102.45,-136.59 -181.26,-181.26 -78.81,-42.02 -165.5,-63.04 -262.7,-63.04l-257.44 0 0 1008.73 260.07 0zm2781.93 430.82c0,39.4 -18.39,57.79 -55.18,57.79l-1350.24 0c-36.77,0 -57.79,-18.39 -57.79,-57.79l0 -1870.38c0,-36.77 21.02,-55.16 57.79,-55.16l1329.22 0c36.79,0 55.18,18.39 55.18,55.16l0 346.76c0,36.77 -18.39,55.16 -55.18,55.16l-877.39 0 0 309.98 672.5 0c39.41,0 57.79,18.39 57.79,57.8l0 315.24c0,39.39 -18.38,57.78 -57.79,57.78l-672.5 0 0 325.74 898.41 0c36.79,0 55.18,18.4 55.18,57.79l0 344.13zm2062.14 -7.88c2.63,7.88 2.63,15.77 2.63,23.65 0,13.12 -2.63,23.63 -10.51,31.51 -10.51,7.89 -21.02,10.51 -36.79,10.51l-407.17 0c-31.52,0 -52.54,-15.76 -63.05,-47.28l-89.31 -262.69 -711.9 0 -91.95 262.69c-7.88,31.52 -28.88,47.28 -63.04,47.28l-404.55 0c-15.76,0 -26.27,-2.62 -36.77,-10.51 -7.88,-7.88 -13.13,-18.39 -13.13,-31.51 0,-7.88 2.62,-15.77 5.25,-23.65l722.41 -1875.63c10.49,-31.52 31.51,-47.28 65.67,-47.28l346.76 0c34.14,0 55.16,15.76 65.67,47.28l719.78 1875.63zm-748.68 -669.87l-189.15 -554.28 -23.63 -91.95 -21.02 91.95 -189.14 554.28 422.94 0zm-11372.26 3734.89l900.13 0c119.84,0 217.89,98.04 217.89,217.9 0,119.83 -98.05,217.89 -217.89,217.89l-84.21 0 0 85.29c0,0.33 -5.23,81.97 -85.83,123.14l-207.6 122.04 0 -235.01c28.81,-21.89 47.41,-56.5 47.41,-95.46 0,-66.18 -53.66,-119.85 -119.84,-119.85 -66.18,0 -119.83,53.67 -119.83,119.85 0,38.96 18.6,73.57 47.39,95.46l0 235.01 -207.6 -122.04c-80.59,-41.17 -85.83,-122.81 -85.83,-123.14l0 -85.29 -84.19 0c-119.85,0 -217.91,-98.06 -217.91,-217.89 0,-119.86 98.06,-217.9 217.91,-217.9zm-496.08 -640.26l1892.27 0c119.85,0 217.91,98.04 217.91,217.89 0,119.84 -98.06,217.9 -217.91,217.9l-1892.27 0c-119.83,0 -217.89,-98.06 -217.89,-217.9 0,-119.85 98.06,-217.89 217.89,-217.89zm0 -653.66l1892.27 0c119.85,0 217.91,98.04 217.91,217.89 0,119.84 -98.06,217.88 -217.91,217.88l-1892.27 0c-119.83,0 -217.89,-98.04 -217.89,-217.88 0,-119.85 98.06,-217.89 217.89,-217.89zm-483.98 -4245.35c49.22,-404.07 403.32,-703.41 811.95,-703.41 237.23,0 462.43,100.61 618.18,276.65 155.77,-176.02 380.92,-276.65 618.15,-276.65 408.64,0 762.75,299.34 811.97,703.41 355.99,87.39 618.95,402.32 618.95,775.04 0,83.04 -13.43,165.56 -39.3,244.26 293.84,124.17 491.65,408.78 491.63,733.2 -0.01,305.95 -178.17,579.17 -448.34,712.85 30.45,84.75 46.26,174.32 46.26,264.63 0,217.52 -90.73,418.68 -248.09,568.29 -117.41,111.63 -263.24,186.45 -421.69,216.6 -48.41,134.19 -131.83,253.3 -240.83,345.93 -153.36,130.35 -349.07,201.01 -550.3,201.01 -245.66,0 -478.6,-105.2 -638.44,-288.75 -159.81,183.55 -392.77,288.75 -638.42,288.75 -201.24,0 -396.93,-70.66 -550.3,-201.01 -109.02,-92.65 -192.43,-211.74 -240.87,-345.93 -158.44,-30.15 -304.26,-104.99 -421.67,-216.6 -157.34,-149.61 -248.04,-350.77 -248.04,-568.29 0,-90.31 15.79,-179.88 46.21,-264.63 -270.14,-133.7 -448.31,-406.9 -448.31,-712.87 0,-324.4 197.81,-609.01 491.65,-733.18 -25.89,-78.7 -39.3,-161.22 -39.3,-244.26 0,-372.7 262.97,-687.63 618.95,-775.04zm357.95 3303.76c31.69,210.98 223.08,361.14 433.76,361.14 0.79,0 1.57,0.02 2.35,0.05 233.08,-1.24 434.3,-182.74 435.8,-419.48 -0.02,-0.78 -0.05,-1.88 -0.05,-3 0,-1.53 0.06,-3.06 0.14,-4.58l0 -3128.25c0,-0.43 0.02,-0.8 0.02,-1.23 5,-232.31 -188.4,-415.06 -417.98,-414.91 -223.76,0.14 -417.36,174.44 -417.36,402.01 0,17.57 1.16,35.16 3.52,52.55 0.03,0.29 0.08,0.59 0.11,0.88 26.37,192.11 198.67,328.43 389.99,328.43 109.86,0 200.23,88.19 200.23,198.45 0,110.25 -90.37,198.47 -200.23,198.47 -316.69,0 -608.56,-187.1 -732.48,-476.75 -159.31,56.37 -274.31,203.78 -274.31,377.5 0,93.23 32.07,179.7 91.72,251.29 48.33,58.01 59.48,138.57 28.39,207.41 -31.11,68.89 -98.68,113.99 -174.11,117.22 -217.36,9.32 -398.32,180.05 -398.32,401.52 0,207.68 162.44,374.96 366.08,398.88 72.59,8.54 135.16,55.74 162.45,123.62 27.23,67.69 14.49,145.4 -32.66,201.06 -61.05,72.07 -93.81,159.46 -93.81,253.94 0,156.11 100.21,291.71 236.68,358.38 75.23,-386.95 425.04,-665.24 823.83,-665.24 109.84,0 200.18,88.22 200.18,198.46 0,110.27 -90.34,198.45 -200.18,198.45 -235.1,0 -438.31,183.47 -438.31,422.44 0,20.13 1.48,40.31 4.4,60.21 0.06,0.37 0.11,0.72 0.15,1.08zm-193.38 -2293.86c370.09,0 682.08,293.37 682.08,667.02 0,373.64 -311.99,667.01 -682.08,667.01 -109.84,0 -200.21,-88.19 -200.21,-198.44 0,-110.26 90.39,-198.42 200.21,-198.42 150.49,0 281.65,-116.85 281.65,-270.15 0,-153.33 -131.15,-270.15 -281.65,-270.15 -109.84,0 -200.21,-88.17 -200.21,-198.43 0,-110.25 90.37,-198.44 200.21,-198.44zm2639.91 -612.39c-123.94,289.66 -415.79,476.78 -732.52,476.78 -109.84,0 -200.18,-88.23 -200.18,-198.47 0,-110.26 90.32,-198.46 200.18,-198.46 191.58,0 364.15,-136.76 390.09,-329.31 2.34,-17.39 3.55,-34.99 3.55,-52.55 0,-227.56 -193.6,-401.95 -417.35,-402.05 -227.95,-0.1 -421.74,180.45 -417.84,411.97 0,0.33 0,0.62 0,0.95l0 3136.1c0,1.32 -0.05,2.63 -0.08,3.3 1.56,237.22 204.14,419.13 438.21,419.13 210.99,0 402.68,-150.65 433.86,-362.17 0.1,-0.62 0.19,-1.24 0.31,-1.85 2.75,-19.31 4.12,-38.88 4.12,-58.41 0,-238.95 -203.19,-422.44 -438.29,-422.44 -109.83,0 -200.23,-88.18 -200.23,-198.45 0,-110.24 90.4,-198.46 200.23,-198.46 398.78,0 748.6,278.3 823.83,665.26 136.46,-66.68 236.63,-202.3 236.63,-358.4 0,-94.48 -32.7,-181.87 -93.76,-253.94 -47.16,-55.64 -59.88,-133.37 -32.66,-201.06 27.27,-67.9 89.82,-115.07 162.42,-123.62 203.6,-23.92 366.11,-191.21 366.11,-398.88 0,-221.45 -180.98,-392.22 -398.32,-401.55 -75.42,-3.23 -143,-48.33 -174.1,-117.19 -31.12,-68.85 -19.95,-149.4 28.36,-207.42 59.65,-71.61 91.71,-158.1 91.71,-251.33 0,-173.7 -114.99,-321.09 -274.28,-377.48zm-108.81 1009.26c-150.48,0 -281.68,116.82 -281.68,270.15 0,153.3 131.2,270.15 281.68,270.15 109.83,0 200.21,88.16 200.21,198.42 0,110.25 -90.36,198.44 -200.21,198.44 -370.09,0 -682.08,-293.37 -682.08,-667.01 0,-373.65 312.01,-667.02 682.08,-667.02 109.83,0 200.21,88.19 200.21,198.44 0,110.26 -90.38,198.43 -200.21,198.43zm1226.42 -2698.14l-4983.95 0c-439.93,0 -840,180.12 -1130.17,470.28 -290.17,290.17 -470.28,690.25 -470.28,1130.18l0 4983.94c0,439.93 180.11,840.01 470.28,1130.18 290.17,290.16 690.24,470.28 1130.17,470.28l4983.95 0c439.93,0 840,-180.12 1130.17,-470.28 290.18,-290.17 470.28,-690.25 470.28,-1130.18l0 -4983.94c0,-439.93 -180.1,-840.01 -470.28,-1130.18 -290.17,-290.16 -690.24,-470.28 -1130.17,-470.28z"/>
 </g>
</svg>
